# xmcd CD database file
#
# Track frame offsets:
#	150
#	22565
#	47535
#	73837
#
# Disc length: 1581 seconds
#
# Revision: 0
# Processed by: cddbd v1.5.1PL0 Copyright (c) Steve Scherf et al.
# Submitted via: CD2WAV32(EN) R3.19
#
DISCID=26062b04
DTITLE=SOUL'd OUT - BLUES
DYEAR=1900
DGENRE=
TTITLE0=BLUES
TTITLE1=BLUES"hbs"Night in blue shift Remix feat'DJTARO
TTITLE2=BLUES R.Yamaki's GROOVE Mix
TTITLE3=Gift Music
EXTD=
EXTT0=
EXTT1=
EXTT2=
EXTT3=
PLAYORDER=
